<svg xmlns="http://www.w3.org/2000/svg" xmlns:xlink="http://www.w3.org/1999/xlink" width="500" zoomAndPan="magnify" viewBox="0 0 375 374.999991" height="500" preserveAspectRatio="xMidYMid meet" version="1.0"><defs><g/></defs><g fill="currentColor" fill-opacity="1"><g transform="translate(54.103455, 243.815147)"><g><path d="M 41.84375 -14.984375 C 41.53125 -12.441406 41.804688 -10.257812 42.671875 -8.4375 C 43.546875 -6.613281 44.773438 -5.066406 46.359375 -3.796875 C 47.941406 -2.535156 49.765625 -1.585938 51.828125 -0.953125 C 53.890625 -0.316406 55.867188 0 57.765625 0 C 50.640625 0 43.90625 -1.226562 37.5625 -3.6875 C 31.21875 -6.144531 25.707031 -9.472656 21.03125 -13.671875 C 16.363281 -17.867188 12.679688 -22.78125 9.984375 -28.40625 C 7.285156 -34.03125 5.9375 -40.015625 5.9375 -46.359375 C 5.9375 -49.847656 6.609375 -53.132812 7.953125 -56.21875 C 9.304688 -59.3125 11.128906 -62.007812 13.421875 -64.3125 C 15.722656 -66.613281 18.421875 -68.4375 21.515625 -69.78125 C 24.609375 -71.125 27.898438 -71.796875 31.390625 -71.796875 C 34.867188 -71.796875 38.15625 -71.125 41.25 -69.78125 C 44.34375 -68.4375 47.035156 -66.613281 49.328125 -64.3125 C 51.628906 -62.007812 53.453125 -59.3125 54.796875 -56.21875 C 56.148438 -53.132812 56.828125 -49.847656 56.828125 -46.359375 C 56.828125 -39.703125 54.523438 -33.835938 49.921875 -28.765625 C 48.179688 -26.867188 46.476562 -24.648438 44.8125 -22.109375 C 43.144531 -19.578125 42.15625 -17.203125 41.84375 -14.984375 Z M 58.25 0 L 57.765625 0 Z M 124.8125 -166.421875 C 120.851562 -166.421875 117.484375 -164.796875 114.703125 -161.546875 C 111.929688 -158.296875 110.546875 -154.691406 110.546875 -150.734375 L 110.546875 -46.359375 C 110.546875 -40.816406 109.515625 -35.546875 107.453125 -30.546875 C 105.398438 -25.554688 102.507812 -21.078125 98.78125 -17.109375 C 95.0625 -13.148438 90.703125 -9.742188 85.703125 -6.890625 C 80.710938 -4.035156 75.285156 -2.054688 69.421875 -0.953125 C 71.484375 -1.429688 73.582031 -2.066406 75.71875 -2.859375 C 77.863281 -3.648438 79.765625 -4.675781 81.421875 -5.9375 C 83.085938 -7.207031 84.4375 -8.632812 85.46875 -10.21875 C 86.5 -11.800781 87.015625 -13.546875 87.015625 -15.453125 C 87.015625 -18.617188 86.0625 -21.46875 84.15625 -24 C 82.257812 -26.539062 80.117188 -28.960938 77.734375 -31.265625 C 75.359375 -33.566406 73.21875 -35.941406 71.3125 -38.390625 C 69.414062 -40.847656 68.46875 -43.503906 68.46875 -46.359375 L 68.46875 -150.734375 C 68.46875 -154.691406 67.082031 -158.296875 64.3125 -161.546875 C 61.539062 -164.796875 58.171875 -166.421875 54.203125 -166.421875 Z M 124.8125 -166.421875 "/></g></g></g><g fill="currentColor" fill-opacity="1"><g transform="translate(184.853062, 243.815147)"><g><path d="M 129.8125 -45.890625 C 130.289062 -39.546875 129.019531 -33.640625 126 -28.171875 C 122.988281 -22.703125 118.707031 -17.90625 113.15625 -13.78125 C 107.613281 -9.664062 101.078125 -6.378906 93.546875 -3.921875 C 86.023438 -1.460938 78.144531 -0.15625 69.90625 0 C 72.75 -0.3125 75.476562 -1.179688 78.09375 -2.609375 C 80.71875 -4.035156 83.054688 -5.816406 85.109375 -7.953125 C 87.171875 -10.097656 88.796875 -12.554688 89.984375 -15.328125 C 91.171875 -18.109375 91.765625 -21.003906 91.765625 -24.015625 C 91.765625 -30.035156 89.664062 -35.738281 85.46875 -41.125 C 81.269531 -46.519531 75.957031 -51.789062 69.53125 -56.9375 C 63.113281 -62.09375 56.21875 -67.285156 48.84375 -72.515625 C 41.476562 -77.742188 34.585938 -83.210938 28.171875 -88.921875 C 21.753906 -94.628906 16.441406 -100.648438 12.234375 -106.984375 C 8.035156 -113.328125 5.9375 -120.222656 5.9375 -127.671875 C 5.9375 -134.804688 7.878906 -140.828125 11.765625 -145.734375 C 15.648438 -150.648438 20.5625 -154.65625 26.5 -157.75 C 32.445312 -160.84375 38.945312 -163.0625 46 -164.40625 C 53.050781 -165.75 59.828125 -166.421875 66.328125 -166.421875 L 69.90625 -166.421875 C 64.351562 -165.953125 59.4375 -163.894531 55.15625 -160.25 C 50.875 -156.601562 48.5 -151.453125 48.03125 -144.796875 C 47.550781 -138.609375 49.171875 -132.898438 52.890625 -127.671875 C 56.617188 -122.441406 61.375 -117.410156 67.15625 -112.578125 C 72.945312 -107.742188 79.367188 -102.945312 86.421875 -98.1875 C 93.472656 -93.4375 100.085938 -88.40625 106.265625 -83.09375 C 112.453125 -77.78125 117.765625 -72.113281 122.203125 -66.09375 C 126.640625 -60.070312 129.175781 -53.335938 129.8125 -45.890625 Z M 119.109375 -121.484375 C 118.160156 -126.242188 116.457031 -131.078125 114 -135.984375 C 111.539062 -140.898438 108.445312 -145.5 104.71875 -149.78125 C 101 -154.0625 96.722656 -157.664062 91.890625 -160.59375 C 87.054688 -163.53125 81.785156 -165.316406 76.078125 -165.953125 C 81.148438 -165.472656 85.941406 -164.875 90.453125 -164.15625 C 94.972656 -163.445312 99.769531 -163.09375 104.84375 -163.09375 C 107.539062 -163.09375 110.195312 -163.328125 112.8125 -163.796875 C 115.425781 -164.273438 117.523438 -165.148438 119.109375 -166.421875 Z M 42.796875 -11.40625 C 43.273438 -8.71875 45.332031 -6.222656 48.96875 -3.921875 C 52.613281 -1.617188 57.769531 -0.3125 64.4375 0 C 56.351562 -0.3125 48.78125 -1.578125 41.71875 -3.796875 C 34.664062 -6.015625 28.484375 -8.945312 23.171875 -12.59375 C 17.867188 -16.238281 13.671875 -20.476562 10.578125 -25.3125 C 7.484375 -30.15625 5.9375 -35.425781 5.9375 -41.125 C 5.9375 -44.613281 6.609375 -47.90625 7.953125 -51 C 9.304688 -54.09375 11.128906 -56.785156 13.421875 -59.078125 C 15.722656 -61.378906 18.421875 -63.203125 21.515625 -64.546875 C 24.609375 -65.890625 27.898438 -66.5625 31.390625 -66.5625 C 34.867188 -66.5625 38.15625 -65.890625 41.25 -64.546875 C 44.34375 -63.203125 47.035156 -61.378906 49.328125 -59.078125 C 51.628906 -56.785156 53.453125 -54.09375 54.796875 -51 C 56.148438 -47.90625 56.828125 -44.613281 56.828125 -41.125 C 56.828125 -37.644531 56.148438 -34.316406 54.796875 -31.140625 C 53.453125 -27.972656 51.671875 -25.28125 49.453125 -23.0625 C 46.910156 -20.363281 45.082031 -18.300781 43.96875 -16.875 C 42.863281 -15.445312 42.472656 -13.625 42.796875 -11.40625 Z M 42.796875 -11.40625 "/></g></g></g><g fill="currentColor" fill-opacity="1"><g transform="translate(0.0921958, 289.67235)"><g><path d="M -0.875 5.8125 C 0.0507812 5.675781 0.8125 5.382812 1.40625 4.9375 C 2 4.5 2.457031 3.734375 2.78125 2.640625 C 3.113281 1.554688 3.28125 0.0351562 3.28125 -1.921875 L 3.28125 -20.96875 C 3.28125 -21.851562 3.210938 -22.488281 3.078125 -22.875 C 2.953125 -23.269531 2.726562 -23.535156 2.40625 -23.671875 C 2.082031 -23.816406 1.546875 -23.914062 0.796875 -23.96875 L 0.796875 -24.65625 C 2.054688 -24.582031 4 -24.546875 6.625 -24.546875 C 9.332031 -24.546875 11.394531 -24.582031 12.8125 -24.65625 L 12.8125 -23.96875 C 12.070312 -23.914062 11.53125 -23.816406 11.1875 -23.671875 C 10.851562 -23.535156 10.628906 -23.269531 10.515625 -22.875 C 10.398438 -22.488281 10.34375 -21.851562 10.34375 -20.96875 L 10.34375 -5.328125 C 10.34375 -3.984375 10.300781 -2.800781 10.21875 -1.78125 C 10.132812 -0.757812 9.976562 0.125 9.75 0.875 C 9.195312 2.5625 8.023438 3.925781 6.234375 4.96875 C 4.441406 6.019531 2.070312 6.546875 -0.875 6.546875 Z M -0.875 5.8125 "/></g></g></g><g fill="currentColor" fill-opacity="1"><g transform="translate(13.675906, 289.67235)"><g><path d="M 22.296875 -2.921875 C 22.597656 -2.179688 22.925781 -1.628906 23.28125 -1.265625 C 23.644531 -0.910156 24 -0.722656 24.34375 -0.703125 L 24.34375 0 C 22.675781 -0.0703125 20.5625 -0.109375 18 -0.109375 C 15.351562 -0.109375 13.40625 -0.0703125 12.15625 0 L 12.15625 -0.703125 C 13.039062 -0.742188 13.664062 -0.847656 14.03125 -1.015625 C 14.40625 -1.191406 14.59375 -1.503906 14.59375 -1.953125 C 14.59375 -2.367188 14.453125 -2.925781 14.171875 -3.625 L 12.125 -9.328125 L 5.078125 -9.328125 L 4.5 -7.765625 C 3.726562 -5.796875 3.34375 -4.285156 3.34375 -3.234375 C 3.34375 -2.285156 3.609375 -1.632812 4.140625 -1.28125 C 4.679688 -0.9375 5.472656 -0.742188 6.515625 -0.703125 L 6.515625 0 C 4.773438 -0.0703125 3.253906 -0.109375 1.953125 -0.109375 C 0.859375 -0.109375 -0.0351562 -0.0703125 -0.734375 0 L -0.734375 -0.703125 C -0.148438 -0.785156 0.394531 -1.140625 0.90625 -1.765625 C 1.414062 -2.398438 1.9375 -3.398438 2.46875 -4.765625 L 10.203125 -24.65625 C 10.941406 -24.613281 11.554688 -24.59375 12.046875 -24.59375 C 12.515625 -24.59375 13.117188 -24.613281 13.859375 -24.65625 Z M 11.875 -10.03125 L 8.703125 -18.734375 L 5.359375 -10.03125 Z M 11.875 -10.03125 "/></g></g></g><g fill="currentColor" fill-opacity="1"><g transform="translate(37.778288, 289.67235)"><g><path d="M 19.46875 -24.59375 C 20.5625 -24.59375 21.457031 -24.625 22.15625 -24.6875 L 22.15625 -24 C 20.96875 -23.414062 19.734375 -21.867188 18.453125 -19.359375 L 15.21875 -12.953125 L 15.21875 -3.6875 C 15.21875 -2.8125 15.28125 -2.175781 15.40625 -1.78125 C 15.539062 -1.382812 15.769531 -1.113281 16.09375 -0.96875 C 16.414062 -0.832031 16.945312 -0.742188 17.6875 -0.703125 L 17.6875 0 C 16.34375 -0.0703125 14.347656 -0.109375 11.703125 -0.109375 C 8.941406 -0.109375 6.929688 -0.0703125 5.671875 0 L 5.671875 -0.703125 C 6.421875 -0.742188 6.960938 -0.832031 7.296875 -0.96875 C 7.628906 -1.113281 7.851562 -1.382812 7.96875 -1.78125 C 8.09375 -2.175781 8.15625 -2.8125 8.15625 -3.6875 L 8.15625 -10.09375 L 1.703125 -22.015625 C 1.335938 -22.679688 0.976562 -23.171875 0.625 -23.484375 C 0.28125 -23.804688 -0.03125 -23.96875 -0.3125 -23.96875 L -0.3125 -24.6875 C 1.125 -24.550781 2.726562 -24.484375 4.5 -24.484375 C 6.488281 -24.484375 9.039062 -24.550781 12.15625 -24.6875 L 12.15625 -23.96875 C 11.226562 -23.96875 10.53125 -23.921875 10.0625 -23.828125 C 9.601562 -23.734375 9.375 -23.507812 9.375 -23.15625 C 9.375 -23 9.421875 -22.828125 9.515625 -22.640625 L 14.484375 -13.09375 L 16.0625 -16.234375 C 17.144531 -18.410156 17.6875 -20.140625 17.6875 -21.421875 C 17.6875 -23.066406 16.757812 -23.925781 14.90625 -24 L 14.90625 -24.6875 C 16.644531 -24.625 18.164062 -24.59375 19.46875 -24.59375 Z M 19.46875 -24.59375 "/></g></g></g><g fill="currentColor" fill-opacity="1"><g transform="translate(60.208821, 289.67235)"><g><path d="M 22.296875 -2.921875 C 22.597656 -2.179688 22.925781 -1.628906 23.28125 -1.265625 C 23.644531 -0.910156 24 -0.722656 24.34375 -0.703125 L 24.34375 0 C 22.675781 -0.0703125 20.5625 -0.109375 18 -0.109375 C 15.351562 -0.109375 13.40625 -0.0703125 12.15625 0 L 12.15625 -0.703125 C 13.039062 -0.742188 13.664062 -0.847656 14.03125 -1.015625 C 14.40625 -1.191406 14.59375 -1.503906 14.59375 -1.953125 C 14.59375 -2.367188 14.453125 -2.925781 14.171875 -3.625 L 12.125 -9.328125 L 5.078125 -9.328125 L 4.5 -7.765625 C 3.726562 -5.796875 3.34375 -4.285156 3.34375 -3.234375 C 3.34375 -2.285156 3.609375 -1.632812 4.140625 -1.28125 C 4.679688 -0.9375 5.472656 -0.742188 6.515625 -0.703125 L 6.515625 0 C 4.773438 -0.0703125 3.253906 -0.109375 1.953125 -0.109375 C 0.859375 -0.109375 -0.0351562 -0.0703125 -0.734375 0 L -0.734375 -0.703125 C -0.148438 -0.785156 0.394531 -1.140625 0.90625 -1.765625 C 1.414062 -2.398438 1.9375 -3.398438 2.46875 -4.765625 L 10.203125 -24.65625 C 10.941406 -24.613281 11.554688 -24.59375 12.046875 -24.59375 C 12.515625 -24.59375 13.117188 -24.613281 13.859375 -24.65625 Z M 11.875 -10.03125 L 8.703125 -18.734375 L 5.359375 -10.03125 Z M 11.875 -10.03125 "/></g></g></g><g fill="currentColor" fill-opacity="1"><g transform="translate(84.311203, 289.67235)"><g><path d="M 24.65625 -23.96875 C 23.9375 -23.800781 23.398438 -23.546875 23.046875 -23.203125 C 22.703125 -22.867188 22.472656 -22.351562 22.359375 -21.65625 C 22.242188 -20.96875 22.1875 -19.925781 22.1875 -18.53125 L 22.1875 0 C 21.71875 -0.0390625 21.332031 -0.0625 21.03125 -0.0625 C 20.78125 -0.0625 20.351562 -0.0390625 19.75 0 L 4.3125 -16.859375 L 4.3125 -6.828125 C 4.3125 -5.109375 4.378906 -3.867188 4.515625 -3.109375 C 4.660156 -2.359375 4.972656 -1.804688 5.453125 -1.453125 C 5.929688 -1.109375 6.726562 -0.859375 7.84375 -0.703125 L 7.84375 0 C 6.882812 -0.0703125 5.582031 -0.109375 3.9375 -0.109375 C 2.707031 -0.109375 1.742188 -0.0703125 1.046875 0 L 1.046875 -0.703125 C 1.765625 -0.859375 2.296875 -1.101562 2.640625 -1.4375 C 2.992188 -1.78125 3.226562 -2.300781 3.34375 -3 C 3.457031 -3.695312 3.515625 -4.738281 3.515625 -6.125 L 3.515625 -20.96875 C 3.515625 -21.851562 3.453125 -22.488281 3.328125 -22.875 C 3.203125 -23.269531 2.972656 -23.535156 2.640625 -23.671875 C 2.316406 -23.816406 1.785156 -23.914062 1.046875 -23.96875 L 1.046875 -24.65625 C 1.742188 -24.582031 2.707031 -24.546875 3.9375 -24.546875 C 5.1875 -24.546875 6.253906 -24.582031 7.140625 -24.65625 L 21.390625 -9.609375 L 21.390625 -17.828125 C 21.390625 -19.546875 21.316406 -20.78125 21.171875 -21.53125 C 21.035156 -22.289062 20.726562 -22.84375 20.25 -23.1875 C 19.769531 -23.539062 18.972656 -23.800781 17.859375 -23.96875 L 17.859375 -24.65625 C 18.816406 -24.582031 20.117188 -24.546875 21.765625 -24.546875 C 22.992188 -24.546875 23.957031 -24.582031 24.65625 -24.65625 Z M 24.65625 -23.96875 "/></g></g></g><g fill="currentColor" fill-opacity="1"><g transform="translate(109.806791, 289.67235)"><g><path d="M 23.546875 -24.65625 C 23.378906 -22.082031 23.296875 -19.785156 23.296875 -17.765625 C 23.296875 -16.691406 23.332031 -15.851562 23.40625 -15.25 L 22.609375 -15.25 C 21.835938 -18.289062 20.847656 -20.484375 19.640625 -21.828125 C 18.429688 -23.179688 17.132812 -23.859375 15.75 -23.859375 L 15.703125 -23.859375 L 15.703125 -3.9375 C 15.703125 -2.957031 15.800781 -2.25 16 -1.8125 C 16.195312 -1.375 16.554688 -1.078125 17.078125 -0.921875 C 17.597656 -0.773438 18.429688 -0.703125 19.578125 -0.703125 L 19.578125 0 C 16.296875 -0.0703125 13.753906 -0.109375 11.953125 -0.109375 C 10.296875 -0.109375 7.898438 -0.0703125 4.765625 0 L 4.765625 -0.703125 C 5.910156 -0.703125 6.742188 -0.773438 7.265625 -0.921875 C 7.785156 -1.078125 8.144531 -1.375 8.34375 -1.8125 C 8.539062 -2.25 8.640625 -2.957031 8.640625 -3.9375 L 8.640625 -23.859375 L 8.609375 -23.859375 C 7.191406 -23.859375 5.882812 -23.191406 4.6875 -21.859375 C 3.488281 -20.523438 2.503906 -18.320312 1.734375 -15.25 L 0.9375 -15.25 C 1.007812 -15.851562 1.046875 -16.691406 1.046875 -17.765625 C 1.046875 -19.785156 0.960938 -22.082031 0.796875 -24.65625 C 3.003906 -24.582031 6.800781 -24.546875 12.1875 -24.546875 C 17.550781 -24.546875 21.335938 -24.582031 23.546875 -24.65625 Z M 23.546875 -24.65625 "/></g></g></g><g fill="currentColor" fill-opacity="1"><g transform="translate(134.152976, 289.67235)"><g><path d="M 22.296875 -2.921875 C 22.597656 -2.179688 22.925781 -1.628906 23.28125 -1.265625 C 23.644531 -0.910156 24 -0.722656 24.34375 -0.703125 L 24.34375 0 C 22.675781 -0.0703125 20.5625 -0.109375 18 -0.109375 C 15.351562 -0.109375 13.40625 -0.0703125 12.15625 0 L 12.15625 -0.703125 C 13.039062 -0.742188 13.664062 -0.847656 14.03125 -1.015625 C 14.40625 -1.191406 14.59375 -1.503906 14.59375 -1.953125 C 14.59375 -2.367188 14.453125 -2.925781 14.171875 -3.625 L 12.125 -9.328125 L 5.078125 -9.328125 L 4.5 -7.765625 C 3.726562 -5.796875 3.34375 -4.285156 3.34375 -3.234375 C 3.34375 -2.285156 3.609375 -1.632812 4.140625 -1.28125 C 4.679688 -0.9375 5.472656 -0.742188 6.515625 -0.703125 L 6.515625 0 C 4.773438 -0.0703125 3.253906 -0.109375 1.953125 -0.109375 C 0.859375 -0.109375 -0.0351562 -0.0703125 -0.734375 0 L -0.734375 -0.703125 C -0.148438 -0.785156 0.394531 -1.140625 0.90625 -1.765625 C 1.414062 -2.398438 1.9375 -3.398438 2.46875 -4.765625 L 10.203125 -24.65625 C 10.941406 -24.613281 11.554688 -24.59375 12.046875 -24.59375 C 12.515625 -24.59375 13.117188 -24.613281 13.859375 -24.65625 Z M 11.875 -10.03125 L 8.703125 -18.734375 L 5.359375 -10.03125 Z M 11.875 -10.03125 "/></g></g></g><g fill="currentColor" fill-opacity="1"><g transform="translate(158.255359, 289.67235)"><g/></g></g><g fill="currentColor" fill-opacity="1"><g transform="translate(166.022461, 289.67235)"><g><path d="M 10.515625 -25.140625 C 11.835938 -25.140625 12.910156 -25.019531 13.734375 -24.78125 C 14.554688 -24.539062 15.363281 -24.195312 16.15625 -23.75 C 16.414062 -23.613281 16.644531 -23.5 16.84375 -23.40625 C 17.039062 -23.3125 17.207031 -23.265625 17.34375 -23.265625 C 17.550781 -23.265625 17.710938 -23.382812 17.828125 -23.625 C 17.941406 -23.875 18.035156 -24.265625 18.109375 -24.796875 L 18.90625 -24.796875 C 18.789062 -23.128906 18.734375 -20.296875 18.734375 -16.296875 L 17.9375 -16.296875 C 17.84375 -17.617188 17.539062 -18.882812 17.03125 -20.09375 C 16.519531 -21.300781 15.820312 -22.285156 14.9375 -23.046875 C 14.0625 -23.816406 13.039062 -24.203125 11.875 -24.203125 C 10.8125 -24.203125 9.953125 -23.914062 9.296875 -23.34375 C 8.648438 -22.78125 8.328125 -21.988281 8.328125 -20.96875 C 8.328125 -20.175781 8.5 -19.488281 8.84375 -18.90625 C 9.195312 -18.332031 9.707031 -17.769531 10.375 -17.21875 C 11.050781 -16.675781 12.15625 -15.867188 13.6875 -14.796875 C 13.820312 -14.734375 13.953125 -14.65625 14.078125 -14.5625 C 14.210938 -14.46875 14.335938 -14.375 14.453125 -14.28125 C 15.734375 -13.394531 16.753906 -12.609375 17.515625 -11.921875 C 18.285156 -11.242188 18.90625 -10.453125 19.375 -9.546875 C 19.851562 -8.640625 20.09375 -7.59375 20.09375 -6.40625 C 20.09375 -4.894531 19.664062 -3.625 18.8125 -2.59375 C 17.96875 -1.5625 16.828125 -0.789062 15.390625 -0.28125 C 13.953125 0.226562 12.363281 0.484375 10.625 0.484375 C 9.207031 0.484375 8.023438 0.367188 7.078125 0.140625 C 6.140625 -0.0859375 5.265625 -0.398438 4.453125 -0.796875 C 3.941406 -1.117188 3.550781 -1.28125 3.28125 -1.28125 C 3.0625 -1.28125 2.894531 -1.160156 2.78125 -0.921875 C 2.664062 -0.679688 2.570312 -0.289062 2.5 0.25 L 1.703125 0.25 C 1.796875 -1.332031 1.84375 -4.703125 1.84375 -9.859375 L 2.640625 -9.859375 C 2.804688 -7.097656 3.390625 -4.859375 4.390625 -3.140625 C 5.390625 -1.421875 6.921875 -0.5625 8.984375 -0.5625 C 10.265625 -0.5625 11.28125 -0.863281 12.03125 -1.46875 C 12.789062 -2.070312 13.171875 -2.90625 13.171875 -3.96875 C 13.171875 -5.289062 12.753906 -6.421875 11.921875 -7.359375 C 11.097656 -8.304688 9.816406 -9.359375 8.078125 -10.515625 C 6.679688 -11.441406 5.566406 -12.253906 4.734375 -12.953125 C 3.898438 -13.648438 3.210938 -14.457031 2.671875 -15.375 C 2.140625 -16.289062 1.875 -17.351562 1.875 -18.5625 C 1.875 -20.019531 2.269531 -21.242188 3.0625 -22.234375 C 3.851562 -23.222656 4.90625 -23.953125 6.21875 -24.421875 C 7.53125 -24.898438 8.960938 -25.140625 10.515625 -25.140625 Z M 10.515625 -25.140625 "/></g></g></g><g fill="currentColor" fill-opacity="1"><g transform="translate(187.373274, 289.67235)"><g><path d="M 22.296875 -2.921875 C 22.597656 -2.179688 22.925781 -1.628906 23.28125 -1.265625 C 23.644531 -0.910156 24 -0.722656 24.34375 -0.703125 L 24.34375 0 C 22.675781 -0.0703125 20.5625 -0.109375 18 -0.109375 C 15.351562 -0.109375 13.40625 -0.0703125 12.15625 0 L 12.15625 -0.703125 C 13.039062 -0.742188 13.664062 -0.847656 14.03125 -1.015625 C 14.40625 -1.191406 14.59375 -1.503906 14.59375 -1.953125 C 14.59375 -2.367188 14.453125 -2.925781 14.171875 -3.625 L 12.125 -9.328125 L 5.078125 -9.328125 L 4.5 -7.765625 C 3.726562 -5.796875 3.34375 -4.285156 3.34375 -3.234375 C 3.34375 -2.285156 3.609375 -1.632812 4.140625 -1.28125 C 4.679688 -0.9375 5.472656 -0.742188 6.515625 -0.703125 L 6.515625 0 C 4.773438 -0.0703125 3.253906 -0.109375 1.953125 -0.109375 C 0.859375 -0.109375 -0.0351562 -0.0703125 -0.734375 0 L -0.734375 -0.703125 C -0.148438 -0.785156 0.394531 -1.140625 0.90625 -1.765625 C 1.414062 -2.398438 1.9375 -3.398438 2.46875 -4.765625 L 10.203125 -24.65625 C 10.941406 -24.613281 11.554688 -24.59375 12.046875 -24.59375 C 12.515625 -24.59375 13.117188 -24.613281 13.859375 -24.65625 Z M 11.875 -10.03125 L 8.703125 -18.734375 L 5.359375 -10.03125 Z M 11.875 -10.03125 "/></g></g></g><g fill="currentColor" fill-opacity="1"><g transform="translate(211.475657, 289.67235)"><g><path d="M 32.640625 -23.96875 C 31.890625 -23.914062 31.347656 -23.816406 31.015625 -23.671875 C 30.679688 -23.535156 30.453125 -23.269531 30.328125 -22.875 C 30.210938 -22.488281 30.15625 -21.851562 30.15625 -20.96875 L 30.15625 -3.6875 C 30.15625 -2.8125 30.21875 -2.175781 30.34375 -1.78125 C 30.476562 -1.382812 30.707031 -1.113281 31.03125 -0.96875 C 31.351562 -0.832031 31.890625 -0.742188 32.640625 -0.703125 L 32.640625 0 C 31.222656 -0.0703125 29.164062 -0.109375 26.46875 -0.109375 C 23.65625 -0.109375 21.585938 -0.0703125 20.265625 0 L 20.265625 -0.703125 C 21.109375 -0.742188 21.71875 -0.832031 22.09375 -0.96875 C 22.476562 -1.113281 22.738281 -1.382812 22.875 -1.78125 C 23.019531 -2.175781 23.09375 -2.8125 23.09375 -3.6875 L 23.09375 -21.484375 L 14.703125 -0.03125 L 14.140625 -0.03125 L 4.3125 -22.390625 L 4.3125 -6.828125 C 4.3125 -5.109375 4.378906 -3.867188 4.515625 -3.109375 C 4.660156 -2.359375 4.972656 -1.804688 5.453125 -1.453125 C 5.929688 -1.109375 6.726562 -0.859375 7.84375 -0.703125 L 7.84375 0 C 6.882812 -0.0703125 5.582031 -0.109375 3.9375 -0.109375 C 2.707031 -0.109375 1.742188 -0.0703125 1.046875 0 L 1.046875 -0.703125 C 1.765625 -0.859375 2.296875 -1.101562 2.640625 -1.4375 C 2.992188 -1.78125 3.226562 -2.300781 3.34375 -3 C 3.457031 -3.695312 3.515625 -4.738281 3.515625 -6.125 L 3.515625 -20.96875 C 3.515625 -21.851562 3.453125 -22.488281 3.328125 -22.875 C 3.203125 -23.269531 2.972656 -23.535156 2.640625 -23.671875 C 2.316406 -23.816406 1.785156 -23.914062 1.046875 -23.96875 L 1.046875 -24.65625 C 1.742188 -24.582031 2.707031 -24.546875 3.9375 -24.546875 C 6.71875 -24.546875 9.117188 -24.582031 11.140625 -24.65625 L 17.734375 -9.859375 L 23.4375 -24.546875 L 26.46875 -24.546875 C 29.164062 -24.546875 31.222656 -24.582031 32.640625 -24.65625 Z M 32.640625 -23.96875 "/></g></g></g><g fill="currentColor" fill-opacity="1"><g transform="translate(245.086641, 289.67235)"><g><path d="M 22.296875 -2.921875 C 22.597656 -2.179688 22.925781 -1.628906 23.28125 -1.265625 C 23.644531 -0.910156 24 -0.722656 24.34375 -0.703125 L 24.34375 0 C 22.675781 -0.0703125 20.5625 -0.109375 18 -0.109375 C 15.351562 -0.109375 13.40625 -0.0703125 12.15625 0 L 12.15625 -0.703125 C 13.039062 -0.742188 13.664062 -0.847656 14.03125 -1.015625 C 14.40625 -1.191406 14.59375 -1.503906 14.59375 -1.953125 C 14.59375 -2.367188 14.453125 -2.925781 14.171875 -3.625 L 12.125 -9.328125 L 5.078125 -9.328125 L 4.5 -7.765625 C 3.726562 -5.796875 3.34375 -4.285156 3.34375 -3.234375 C 3.34375 -2.285156 3.609375 -1.632812 4.140625 -1.28125 C 4.679688 -0.9375 5.472656 -0.742188 6.515625 -0.703125 L 6.515625 0 C 4.773438 -0.0703125 3.253906 -0.109375 1.953125 -0.109375 C 0.859375 -0.109375 -0.0351562 -0.0703125 -0.734375 0 L -0.734375 -0.703125 C -0.148438 -0.785156 0.394531 -1.140625 0.90625 -1.765625 C 1.414062 -2.398438 1.9375 -3.398438 2.46875 -4.765625 L 10.203125 -24.65625 C 10.941406 -24.613281 11.554688 -24.59375 12.046875 -24.59375 C 12.515625 -24.59375 13.117188 -24.613281 13.859375 -24.65625 Z M 11.875 -10.03125 L 8.703125 -18.734375 L 5.359375 -10.03125 Z M 11.875 -10.03125 "/></g></g></g><g fill="currentColor" fill-opacity="1"><g transform="translate(269.189023, 289.67235)"><g><path d="M 12.578125 -24.65625 C 17.378906 -24.65625 20.972656 -23.628906 23.359375 -21.578125 C 25.753906 -19.523438 26.953125 -16.535156 26.953125 -12.609375 C 26.953125 -10.078125 26.363281 -7.863281 25.1875 -5.96875 C 24.019531 -4.082031 22.332031 -2.613281 20.125 -1.5625 C 17.925781 -0.519531 15.304688 0 12.265625 0 L 10.09375 -0.03125 C 8.707031 -0.0820312 7.6875 -0.109375 7.03125 -0.109375 C 4.3125 -0.109375 2.289062 -0.0703125 0.96875 0 L 0.96875 -0.703125 C 1.71875 -0.742188 2.257812 -0.832031 2.59375 -0.96875 C 2.925781 -1.113281 3.148438 -1.382812 3.265625 -1.78125 C 3.390625 -2.175781 3.453125 -2.8125 3.453125 -3.6875 L 3.453125 -20.96875 C 3.453125 -21.851562 3.382812 -22.488281 3.25 -22.875 C 3.125 -23.269531 2.898438 -23.535156 2.578125 -23.671875 C 2.253906 -23.816406 1.71875 -23.914062 0.96875 -23.96875 L 0.96875 -24.65625 C 2.039062 -24.582031 3.625 -24.546875 5.71875 -24.546875 L 6.96875 -24.546875 L 8.5 -24.59375 C 10.445312 -24.632812 11.804688 -24.65625 12.578125 -24.65625 Z M 13.09375 -24.03125 C 12.375 -24.03125 11.832031 -23.945312 11.46875 -23.78125 C 11.113281 -23.625 10.863281 -23.335938 10.71875 -22.921875 C 10.582031 -22.503906 10.515625 -21.875 10.515625 -21.03125 L 10.515625 -3.625 C 10.515625 -2.789062 10.582031 -2.160156 10.71875 -1.734375 C 10.863281 -1.316406 11.113281 -1.023438 11.46875 -0.859375 C 11.832031 -0.703125 12.382812 -0.625 13.125 -0.625 C 15.425781 -0.625 17.085938 -1.613281 18.109375 -3.59375 C 19.128906 -5.582031 19.640625 -8.539062 19.640625 -12.46875 C 19.640625 -16.394531 19.109375 -19.300781 18.046875 -21.1875 C 16.992188 -23.082031 15.34375 -24.03125 13.09375 -24.03125 Z M 13.09375 -24.03125 "/></g></g></g><g fill="currentColor" fill-opacity="1"><g transform="translate(297.43618, 289.67235)"><g><path d="M 12.578125 -24.65625 C 17.378906 -24.65625 20.972656 -23.628906 23.359375 -21.578125 C 25.753906 -19.523438 26.953125 -16.535156 26.953125 -12.609375 C 26.953125 -10.078125 26.363281 -7.863281 25.1875 -5.96875 C 24.019531 -4.082031 22.332031 -2.613281 20.125 -1.5625 C 17.925781 -0.519531 15.304688 0 12.265625 0 L 10.09375 -0.03125 C 8.707031 -0.0820312 7.6875 -0.109375 7.03125 -0.109375 C 4.3125 -0.109375 2.289062 -0.0703125 0.96875 0 L 0.96875 -0.703125 C 1.71875 -0.742188 2.257812 -0.832031 2.59375 -0.96875 C 2.925781 -1.113281 3.148438 -1.382812 3.265625 -1.78125 C 3.390625 -2.175781 3.453125 -2.8125 3.453125 -3.6875 L 3.453125 -20.96875 C 3.453125 -21.851562 3.382812 -22.488281 3.25 -22.875 C 3.125 -23.269531 2.898438 -23.535156 2.578125 -23.671875 C 2.253906 -23.816406 1.71875 -23.914062 0.96875 -23.96875 L 0.96875 -24.65625 C 2.039062 -24.582031 3.625 -24.546875 5.71875 -24.546875 L 6.96875 -24.546875 L 8.5 -24.59375 C 10.445312 -24.632812 11.804688 -24.65625 12.578125 -24.65625 Z M 13.09375 -24.03125 C 12.375 -24.03125 11.832031 -23.945312 11.46875 -23.78125 C 11.113281 -23.625 10.863281 -23.335938 10.71875 -22.921875 C 10.582031 -22.503906 10.515625 -21.875 10.515625 -21.03125 L 10.515625 -3.625 C 10.515625 -2.789062 10.582031 -2.160156 10.71875 -1.734375 C 10.863281 -1.316406 11.113281 -1.023438 11.46875 -0.859375 C 11.832031 -0.703125 12.382812 -0.625 13.125 -0.625 C 15.425781 -0.625 17.085938 -1.613281 18.109375 -3.59375 C 19.128906 -5.582031 19.640625 -8.539062 19.640625 -12.46875 C 19.640625 -16.394531 19.109375 -19.300781 18.046875 -21.1875 C 16.992188 -23.082031 15.34375 -24.03125 13.09375 -24.03125 Z M 13.09375 -24.03125 "/></g></g></g><g fill="currentColor" fill-opacity="1"><g transform="translate(325.683356, 289.67235)"><g><path d="M 22.296875 -2.921875 C 22.597656 -2.179688 22.925781 -1.628906 23.28125 -1.265625 C 23.644531 -0.910156 24 -0.722656 24.34375 -0.703125 L 24.34375 0 C 22.675781 -0.0703125 20.5625 -0.109375 18 -0.109375 C 15.351562 -0.109375 13.40625 -0.0703125 12.15625 0 L 12.15625 -0.703125 C 13.039062 -0.742188 13.664062 -0.847656 14.03125 -1.015625 C 14.40625 -1.191406 14.59375 -1.503906 14.59375 -1.953125 C 14.59375 -2.367188 14.453125 -2.925781 14.171875 -3.625 L 12.125 -9.328125 L 5.078125 -9.328125 L 4.5 -7.765625 C 3.726562 -5.796875 3.34375 -4.285156 3.34375 -3.234375 C 3.34375 -2.285156 3.609375 -1.632812 4.140625 -1.28125 C 4.679688 -0.9375 5.472656 -0.742188 6.515625 -0.703125 L 6.515625 0 C 4.773438 -0.0703125 3.253906 -0.109375 1.953125 -0.109375 C 0.859375 -0.109375 -0.0351562 -0.0703125 -0.734375 0 L -0.734375 -0.703125 C -0.148438 -0.785156 0.394531 -1.140625 0.90625 -1.765625 C 1.414062 -2.398438 1.9375 -3.398438 2.46875 -4.765625 L 10.203125 -24.65625 C 10.941406 -24.613281 11.554688 -24.59375 12.046875 -24.59375 C 12.515625 -24.59375 13.117188 -24.613281 13.859375 -24.65625 Z M 11.875 -10.03125 L 8.703125 -18.734375 L 5.359375 -10.03125 Z M 11.875 -10.03125 "/></g></g></g><g fill="currentColor" fill-opacity="1"><g transform="translate(349.785738, 289.67235)"><g><path d="M 25.984375 -1.390625 C 25.285156 -0.691406 24.515625 -0.207031 23.671875 0.0625 C 22.835938 0.34375 21.863281 0.484375 20.75 0.484375 C 19.15625 0.484375 17.914062 0.203125 17.03125 -0.359375 C 16.144531 -0.929688 15.597656 -1.90625 15.390625 -3.28125 L 14.875 -6.75 C 14.632812 -8.375 14.3125 -9.601562 13.90625 -10.4375 C 13.5 -11.28125 12.890625 -11.703125 12.078125 -11.703125 L 10.515625 -11.703125 L 10.515625 -3.6875 C 10.515625 -2.8125 10.578125 -2.175781 10.703125 -1.78125 C 10.835938 -1.382812 11.066406 -1.113281 11.390625 -0.96875 C 11.710938 -0.832031 12.242188 -0.742188 12.984375 -0.703125 L 12.984375 0 C 11.640625 -0.0703125 9.703125 -0.109375 7.171875 -0.109375 C 4.359375 -0.109375 2.289062 -0.0703125 0.96875 0 L 0.96875 -0.703125 C 1.71875 -0.742188 2.257812 -0.832031 2.59375 -0.96875 C 2.925781 -1.113281 3.148438 -1.382812 3.265625 -1.78125 C 3.390625 -2.175781 3.453125 -2.8125 3.453125 -3.6875 L 3.453125 -20.96875 C 3.453125 -21.851562 3.382812 -22.488281 3.25 -22.875 C 3.125 -23.269531 2.898438 -23.535156 2.578125 -23.671875 C 2.253906 -23.816406 1.71875 -23.914062 0.96875 -23.96875 L 0.96875 -24.65625 C 2.289062 -24.582031 4.289062 -24.546875 6.96875 -24.546875 L 10.96875 -24.59375 C 11.4375 -24.613281 11.972656 -24.625 12.578125 -24.625 C 16.097656 -24.625 18.722656 -24.125 20.453125 -23.125 C 22.191406 -22.125 23.0625 -20.601562 23.0625 -18.5625 C 23.0625 -16.820312 22.410156 -15.335938 21.109375 -14.109375 C 19.804688 -12.878906 17.625 -12.125 14.5625 -11.84375 C 16.925781 -11.675781 18.710938 -11.226562 19.921875 -10.5 C 21.128906 -9.769531 21.875 -8.695312 22.15625 -7.28125 L 22.875 -3.65625 C 23.039062 -2.800781 23.238281 -2.207031 23.46875 -1.875 C 23.707031 -1.550781 24.035156 -1.390625 24.453125 -1.390625 C 24.867188 -1.390625 25.226562 -1.539062 25.53125 -1.84375 Z M 12.40625 -23.96875 C 11.863281 -23.96875 11.457031 -23.882812 11.1875 -23.71875 C 10.925781 -23.550781 10.75 -23.257812 10.65625 -22.84375 C 10.5625 -22.425781 10.515625 -21.800781 10.515625 -20.96875 L 10.515625 -12.40625 L 11.453125 -12.40625 C 13.109375 -12.40625 14.238281 -12.90625 14.84375 -13.90625 C 15.445312 -14.914062 15.75 -16.34375 15.75 -18.1875 C 15.75 -20.082031 15.484375 -21.519531 14.953125 -22.5 C 14.429688 -23.476562 13.582031 -23.96875 12.40625 -23.96875 Z M 12.40625 -23.96875 "/></g></g></g></svg>